<?xml version="1.0" standalone="no"?>
<!DOCTYPE svg PUBLIC "-//W3C//DTD SVG 20010904//EN"
 "http://www.w3.org/TR/2001/REC-SVG-20010904/DTD/svg10.dtd">
<svg version="1.0" xmlns="http://www.w3.org/2000/svg"
 width="375.000000pt" height="267.000000pt" viewBox="0 0 375.000000 267.000000"
 preserveAspectRatio="xMidYMid meet">
<metadata>
Created by potrace 1.10, written by Peter Selinger 2001-2011
</metadata>
<g transform="translate(0.000000,267.000000) scale(0.100000,-0.100000)"
fill="#000000" stroke="none">
<path d="M1255 2203 c-110 -22 -164 -50 -226 -114 -45 -47 -74 -102 -84 -157
-7 -45 -42 -82 -77 -82 -10 0 -51 -33 -91 -75 -40 -41 -78 -75 -85 -75 -7 0
-25 -19 -42 -42 -56 -77 -36 -182 47 -236 33 -22 34 -22 585 -21 496 0 557 2
593 17 99 42 170 120 199 221 20 69 20 96 -1 162 -31 98 -86 164 -176 211 -35
18 -59 22 -138 22 -66 1 -101 -3 -112 -12 -17 -14 -57 -8 -57 8 0 16 -62 80
-107 111 -59 41 -177 73 -228 62z m111 -128 c51 -21 110 -71 130 -108 9 -18
21 -57 28 -87 7 -35 17 -56 26 -58 9 -1 36 17 62 41 60 56 127 75 196 56 174
-47 219 -250 81 -361 -20 -16 -54 -34 -75 -39 -43 -10 -1023 -13 -1048 -3 -26
10 -37 39 -26 68 8 21 16 26 45 26 33 0 37 3 59 53 32 73 74 99 153 95 l58 -3
-3 70 c-3 53 1 81 16 116 50 116 191 179 298 134z"/>
<path d="M669 1261 c-61 -22 -114 -63 -146 -114 -25 -38 -27 -51 -27 -137 0
-86 2 -99 27 -137 84 -132 282 -166 395 -67 l37 33 -26 26 -26 27 -50 -31
c-85 -52 -179 -35 -240 46 -25 32 -28 45 -28 109 0 80 7 93 79 145 31 23 49
29 93 29 52 0 123 -26 138 -50 10 -15 54 22 55 46 0 25 -40 56 -104 77 -61 21
-117 20 -177 -2z"/>
<path d="M1671 1254 c-43 -22 -57 -35 -73 -72 -45 -102 9 -169 177 -217 33 -9
68 -24 78 -33 24 -21 21 -54 -6 -80 -42 -39 -129 -27 -208 29 -12 9 -20 8 -37
-7 -26 -22 -29 -62 -4 -71 9 -3 24 -11 32 -18 23 -18 106 -38 156 -37 60 0
134 38 158 80 35 63 15 150 -43 185 -29 17 -143 57 -164 57 -15 0 -67 51 -67
66 0 6 10 20 23 32 19 18 35 22 83 22 37 0 68 -6 80 -15 10 -8 26 -15 35 -15
22 0 53 36 45 55 -8 23 -93 56 -156 62 -46 4 -64 0 -109 -23z"/>
<path d="M2872 1257 c-95 -40 -138 -89 -163 -185 -33 -130 49 -273 177 -310
126 -36 243 5 314 109 34 50 35 55 35 143 0 81 -3 95 -27 132 -51 79 -152 135
-242 134 -23 -1 -65 -11 -94 -23z m192 -86 c93 -58 115 -195 44 -277 -42 -48
-77 -64 -141 -64 -44 0 -62 5 -96 31 -109 78 -105 237 7 311 38 25 144 25 186
-1z"/>
<path d="M2100 1260 l-25 -6 -3 -244 c-2 -188 1 -245 10 -252 18 -11 56 -10
63 2 4 7 8 301 5 481 0 21 -18 28 -50 19z"/>
<path d="M2520 1260 c-7 -4 -10 -85 -8 -256 l3 -249 25 -3 c51 -5 51 -2 51
251 0 131 -2 241 -5 246 -8 12 -52 20 -66 11z"/>
<path d="M1206 1238 c-9 -12 -16 -26 -16 -30 0 -4 -14 -38 -31 -75 -16 -38
-36 -81 -44 -98 -7 -16 -22 -50 -34 -75 -53 -118 -78 -185 -74 -197 7 -17 57
-17 72 1 6 7 22 33 34 57 l24 44 109 3 c60 2 118 1 129 -2 12 -3 29 -25 43
-56 23 -50 53 -70 87 -56 21 8 19 31 -11 95 -14 31 -35 76 -46 101 -10 25 -25
59 -33 75 -7 17 -22 50 -33 75 -75 168 -69 160 -117 160 -34 0 -47 -5 -59 -22z
m108 -193 c19 -44 32 -83 30 -87 -8 -12 -152 -10 -159 2 -4 6 3 30 14 53 12
24 21 48 21 53 0 20 42 76 50 68 5 -5 25 -45 44 -89z"/>
<path d="M2291 834 c-26 -33 -26 -36 -2 -62 23 -27 62 -28 84 -4 23 25 21 45
-6 70 -31 29 -51 28 -76 -4z"/>
</g>
</svg>
