<?xml version="1.0" standalone="no"?>
<!DOCTYPE svg PUBLIC "-//W3C//DTD SVG 20010904//EN"
 "http://www.w3.org/TR/2001/REC-SVG-20010904/DTD/svg10.dtd">
<svg version="1.0" xmlns="http://www.w3.org/2000/svg"
 width="125.000000pt" height="89.000000pt" viewBox="0 0 125.000000 89.000000"
 preserveAspectRatio="xMidYMid meet">
<metadata>
Created by potrace 1.10, written by Peter Selinger 2001-2011
</metadata>
<g transform="translate(0.000000,89.000000) scale(0.100000,-0.100000)"
fill="#ffff00" stroke="none">
<path d="M408 732 c-36 -4 -88 -56 -88 -88 0 -14 -6 -24 -14 -24 -23 0 -96
-74 -96 -97 0 -11 8 -27 18 -36 16 -15 45 -17 203 -17 210 0 237 8 259 75 28
85 -63 166 -141 125 -14 -8 -19 -7 -19 3 0 36 -63 66 -122 59z m76 -53 c15
-12 26 -30 26 -45 0 -29 5 -30 37 -4 33 25 54 25 87 -1 36 -28 36 -80 -1 -108
-25 -20 -36 -21 -206 -19 -138 2 -181 6 -185 16 -2 7 4 16 15 18 10 3 23 15
28 27 7 15 19 22 40 22 28 1 30 3 27 33 -7 67 75 106 132 61z"/>
</g>
</svg>
