<?xml version="1.0" standalone="yes"?>
<svg width="1500" height="668">
<path style="fill:#000000; stroke:none;" d="M0 0L0 344L1 344C7.66118 335.654 19.5163 331.244 29.9167 336.083C33.5792 337.788 35.9841 342.12 40.0833 342.889C50.5351 344.85 61.5587 341.26 72 344.306C93.6502 350.62 107.525 368.968 132 364.889C140.889 363.407 148.116 354.59 156 350.667C166.93 345.227 180.95 344 193 344C214.967 344 238.155 341.843 260 344.028C266.368 344.665 268.281 353.086 276 351.889C281.687 351.007 291.99 337.926 283 336L284 333C272.095 328.346 265.17 335 253 335C225.046 335 196.939 334.139 169 335.015C163.266 335.195 160.753 338.754 155.826 340.811C147.381 344.336 135.923 342.035 130.058 335.066C122.215 325.745 125.753 306.441 138.171 302.495C144.12 300.605 152.58 300.873 157.91 304.287C161.141 306.356 163.094 310.183 167.09 310.852C187.137 314.208 209.662 310.385 230 311.015C236.049 311.203 240.314 316.551 245.999 316.551C257.64 316.551 261.042 298.742 249.995 294.603C243.623 292.216 239.59 296.847 234 298.487C228.284 300.164 220.919 299 215 299C201.34 299 187.266 300.261 174 296.457C165.901 294.134 160.667 286.623 152.985 283.818C144.272 280.636 131.229 283 122 283C109.161 311.265 64.2626 274.383 93.0147 254.702C107.597 244.72 117.858 259.505 132 259.957C142.006 260.277 152.143 257.644 162 261.094C170.744 264.155 176.869 273.025 186 274.671C208.852 278.788 235.758 275 259 275C266.872 275 276.308 273.579 284 275.303C291.764 277.044 298.264 285.027 305.005 275.62C309.961 268.705 304.042 256.472 295.011 257.746C290.262 258.416 287.647 263.153 282.961 263.856C261.745 267.038 239.254 260.953 218.039 264.144C210.671 265.253 207.441 272.647 198.996 272.964C186.695 273.426 176.095 266.457 176.079 253C176.064 241.214 186.055 231.524 198 232.21C206.097 232.675 209.35 238.362 216.054 240.968C223.589 243.898 236.777 242.338 244 239.095C256.459 233.5 262.412 215.052 276.004 212.278C281.305 211.196 289.618 211.139 294.91 212.278C302.692 213.952 310.697 220.866 316.192 209.816C319.395 203.376 314.692 196.048 307.985 194.725C302.925 193.726 299.675 197.253 294.961 197.867C287.445 198.846 279.407 196.699 272 198.554C255.641 202.65 250.542 224.206 235 227.697C226.413 229.626 215.794 228 207 228C192.415 228 174.176 230.922 160.09 226.91C150.414 224.154 142.852 215.83 133 213.975C116.856 210.935 99.3805 216.041 83 213C66.2403 233.153 34.078 214.394 47.1235 190.174C50.332 184.217 58.2834 180.109 65 180.289C73.8598 180.525 78.2952 188.651 86.0039 189.852C101.317 192.237 118.493 189.819 134 190.004C140.819 190.085 150.505 191.502 154 198C159.026 198.988 163.016 202.59 168.039 203.674C184.553 207.239 206.347 206.423 223 204L223 146L338 146L338 397C326.01 397 312.159 398.506 301.468 391.947C290.835 385.424 285.671 373.827 273 368.97C261.27 364.474 248.378 366 236 366C213.697 366 191.54 364.239 170 370L170 371L187.91 370.989L201.039 377.941L262 378.514L282 389L281 391C286.262 394.867 289.597 400.493 295.25 404.054C308.054 412.12 323.462 412 338 412L338 444C338 447.778 339.222 454.298 336.972 457.566C334.655 460.933 328.518 460.114 325 459.961C315.388 459.54 295.78 459.299 292 448C284.624 446.032 279.174 440.65 271 439.325C260.136 437.563 248 439 237 439L171 439C161.407 439 151.518 439.694 142 438.424C138.021 437.894 133.455 438.375 132 434C123.89 434.781 120.902 423.968 113.985 420.938C106.981 417.868 95.5695 420 88 420C86.4459 426.142 78.7351 428.843 73 428.985C57.787 429.363 40.6742 407.944 56 396L55 394C63.4811 390.002 70.1596 385.663 79.9992 389.329C84.7076 391.084 87.849 395.496 93.0039 395.941C104.855 396.965 119.576 392.564 129 402L131 401C134.469 408.038 144.193 415.192 152 416.75C160.104 418.367 169.737 417 178 417L232 417C237.449 417 243.648 416.185 249 417.25C253.064 418.059 256.737 421.652 261 420.389C271.255 417.35 274.414 402.755 262.972 398.5C256.654 396.15 247.023 402 240 402L218 402C212.419 402 204.376 400.519 199.083 402.333C189.948 405.465 185.672 413.687 174 410.472C164.171 407.765 159.736 398.512 160 389C160.1 385.397 160.854 378.604 165 378L169 372L161 375L151 382L152 384C135.99 387.419 116.373 391.772 100.09 386.165C86.162 381.37 74.2029 366.578 59 366.019C53.2007 365.805 44.8128 364.619 39.2894 366.514C30.6335 369.484 22.3048 380.807 12 373C6.81023 372.755 4.62159 369.655 3 365L0 365L0 668L1500 668L1500 484L1499 484C1491.02 490.533 1476.86 486.464 1473.01 476.999C1469.94 469.457 1472 458.055 1472 450L1467 450L1467 437L1472 437L1472 423C1484.35 423 1487 424.322 1487 437L1498 437L1498 450L1487 450C1487 454.518 1484.58 470.013 1488.6 472.767C1491.76 474.924 1495.51 471.5 1499 474L1500 474L1500 0L0 0z"/>
<path style="fill:#3191d1; stroke:none;" d="M223 146L225 207L226 207L226 163C226 157.313 227.45 150.233 223 146z"/>
<path style="fill:#ffffff; stroke:none;" d="M224.333 146.667L224.667 147.333L224.333 146.667z"/>
<path style="fill:#167aae; stroke:none;" d="M225 146C228.881 151.987 245.397 149 252 149L334 149L334 397L338 397L338 146L225 146z"/>
<path style="fill:#007fcc; stroke:none;" d="M226 149L226 191L224.397 206.397L210 208L170 208L170 204L165 206L164 201L154 198C152.291 192.724 148.472 193.446 144 195L146 192L146 191L137 193L137 190C116.479 190 94.6043 192.283 75 187L77 184L77 183L73 185L72 182L59 181L58 184L52 183L52 187L51 187L50 185L50 191L46 190L45 197L47 209L46 207L47 207L51 219L56 217C56.6054 219.768 57.2888 219.577 60 219L59 222L69 222C77.6424 205.907 99.6883 210 115 210C121.1 210 130.487 207.987 134 214L139 212L139 216L142 214L142 219L152 220C152.772 224.644 155.049 225.007 159 223L162 227L162 224L166 228L235 228L247.655 218.748L255 205L264 203L263 200L296 198L298 194L310 191L310 195L311 195C315.328 192.936 319.249 198.044 317 202L313 213L314 217L311 216L310 219L300 218L296 216L296 212L276 212L274 215L274 213L262 221L261 227L260 225L259 225C259.299 240.333 235.807 242.071 225 241.995C219.551 241.957 209.997 243.18 210 236L198 232L198 233L200 233L200 234L196 232L185 238C184.321 234.097 181.657 239.547 182 242L178 242L182 268L183 268L184 266L188 273C194.672 272.926 211.994 275.105 211 265L285 264L286 258L293 259L292 256C294.526 256.932 301.403 260.488 302 257C306.485 259.068 309.026 262.145 310 267C304.022 267.752 310.997 280.646 299 280L299 284L292 284C291.088 272.15 276.563 275 268 275L207 275C199.323 275 187.949 272.751 181 276L178 275C177.653 273.038 176.845 269.547 175 272L173 266C167.844 263.644 165.634 262.042 160 264L160 260L150 260L151 262C138.976 262 126.647 263.927 116 258C116.225 252.216 111.762 251.968 107 253C105.284 250.007 103.582 251.596 102 254L101 251L94 256L88 261L85 265C82.1307 277.052 91.5137 280.316 94 291L101 290C101.796 293.716 104.637 293 108 293L108 289C113.759 288.478 117.524 286.3 120 281C129.944 286.174 142.675 281.562 153.17 281.926C158.442 282.109 162.43 285.917 162 291L167 290L169 295L174 297L175 294L176 294L177 297L182 298L183 298L201 296L244 294L242 290L249 290L248 294L251 292C256.303 294.016 260.545 300.032 259.5 306C259.066 308.478 256.593 315.569 254 312L253 312L250 318L249 318L241 318L242 315L235 311L235 314L163 314C163.44 310.112 159.909 300.44 155 305L154 305C153.204 301.284 150.363 302 147 302L147 303L149 303L149 304L144 304L145 302L139 302L128 314L129 318C125.013 318.854 126 322.489 126 326L130 326L138 342C142.102 342 149.96 343.853 151 339C157.404 341.269 162.005 339.587 161 332L239 332C245.712 332 260.762 334.877 265 329L267 331L268 331L271 328L271 329L269 329L269 330L278 328L283 329L282 333L286 333L286 339L289 339C288.684 345.803 285.736 348.593 281 353L280 353L268.228 352.562L262 344L262 347L177 348C176.443 344.125 172.835 346.157 172 349C167.985 346.948 165.989 347.72 163 351L162 351C156.557 345.281 142.431 359.72 137 362L137 367L108 366L110 364L110 363C106.662 361.974 102.723 359.057 100 362L99 362L95 355L87 355L88 350L80 350L79 346C72.694 345.462 66.405 343.481 59.9606 343.053C49.75 342.376 36.1466 345.27 29 336L26 337C22.5345 332.1 15.2457 335.356 10 335L10 340L0 346L1 366L5 366L3 368L5 372L14 375C22.2692 371.065 28.2879 376.664 36 369L34 365L60 364L60 365L37 365L37 366L67 366L70 370L71 370L78 370C78.7184 379.034 89.0262 374.957 93 382L96 381L95 384L107 387L106 385L141 387L144 384L144 386L152 384L154 382L153 378L165 374L165 370L166 370L167 373L176 366L187 366L187 365L185 363L261 363L261 366L271 365L271 369C276.695 368.163 285.14 371.968 286 378L288 376L292 383L293 383L293 380C297.279 383.582 300.582 387.282 301 393L307 394L307 391L310 391L308 395L308 396L313 396C313.584 391.63 317.812 394.269 319 397L334 397L334 149L226 149z"/>
<path style="fill:#64bff5; stroke:none;" d="M223 150L223 204L170 204L170 207L225 207C220.829 189.481 229.889 166.417 223 150z"/>
<path style="fill:#ffffff; stroke:none;" d="M224 150L224 206L225 206L225 168L224 150M652 174L652 229C642.218 219.645 630.683 214.746 617 215.015C565.168 216.035 542.477 287.845 581.13 320.907C597.417 334.839 637.033 343.202 651 321L652 321L652 333L680 333L680 174L652 174M1275 174L1275 333L1303 333L1303 321C1312.46 326.886 1320.55 332.722 1332 333.83C1339.82 334.587 1348.58 334.079 1356 331.406C1416.14 309.749 1397.12 204.573 1330 215.755C1318.44 217.68 1312.09 223.469 1303 230L1303 174L1275 174z"/>
<path style="fill:#6dcdff; stroke:none;" d="M61 180L61 183L68 183L68 180L61 180z"/>
<path style="fill:#65a7bd; stroke:none;" d="M68 183L71 182L68 183z"/>
<path style="fill:#3db0f2; stroke:none;" d="M55 182L55 183L58 184L55 182z"/>
<path style="fill:#ff5700; stroke:none;" d="M69 182L70 183L69 182z"/>
<path style="fill:#94cbd2; stroke:none;" d="M72 182L73 185L75 182L72 182z"/>
<path style="fill:#ffffff; stroke:none;" d="M56 183L57 184L56 183M375 183L375 333L404 333L404 183L375 183M954 183L954 217L940 217L940 240L954 240C954 263.204 946.391 302.988 962.885 321.74C973.961 334.332 993.915 337.587 1009 330.817C1012.84 329.094 1020.97 325.74 1021.54 320.907C1021.88 318.027 1019.62 315.316 1018.25 313C1016.41 309.907 1014.05 302.988 1009.91 302.462C1000.09 301.213 994.01 316.374 984.6 301.995C980.999 296.493 982 288.249 982 282L982 240L1011 240C1011 234.868 1013.25 222.741 1009.97 218.603C1006.36 214.045 987.563 217 982 217L982 183L954 183M1039 183L1039 333L1134 333L1134 305L1068 305L1068 183L1039 183z"/>
<path style="fill:#5a9ec3; stroke:none;" d="M75 184L79 190L83 190L75 184z"/>
<path style="fill:#ff0000; stroke:none;" d="M51 185L52 186L51 185z"/>
<path style="fill:#ffffff; stroke:none;" d="M76 185L77 186L76 185z"/>
<path style="fill:#000000; stroke:none;" d="M51 186L52 187L51 186z"/>
<path style="fill:#26a2f4; stroke:none;" d="M47 188L50 191L49 188L47 188z"/>
<path style="fill:#00012e; stroke:none;" d="M80 189L81 190L80 189z"/>
<path style="fill:#398dbd; stroke:none;" d="M137 190C137.678 193.162 140.32 193.916 142 191L137 190z"/>
<path style="fill:#80ebff; stroke:none;" d="M138 192L141 190L138 192z"/>
<path style="fill:#337193; stroke:none;" d="M303 191L303 194L308 194L308 191L303 191z"/>
<path style="fill:#4ab2f0; stroke:none;" d="M309 191L309 195L310 195L309 191z"/>
<path style="fill:#000000; stroke:none;" d="M47 192L48 193L47 192z"/>
<path style="fill:#3b89b8; stroke:none;" d="M144 192L144 195L147 195L147 192L144 192z"/>
<path style="fill:#52bffd; stroke:none;" d="M302 192L304 195L302 192z"/>
<path style="fill:#f7ffff; stroke:none;" d="M308 192L309 193L308 192z"/>
<path style="fill:#4cc6ff; stroke:none;" d="M311 193L311 196L313 196L313 193L311 193z"/>
<path style="fill:#3392d0; stroke:none;" d="M313 193C313.34 197.462 315.042 199.912 319 202C318.414 197.627 316.837 195.189 313 193z"/>
<path style="fill:#35769c; stroke:none;" d="M296 194L299 198L298 194L296 194z"/>
<path style="fill:#70d7ff; stroke:none;" d="M307 194L308 195L307 194z"/>
<path style="fill:#ffffff; stroke:none;" d="M308 194L309 195L308 194z"/>
<path style="fill:#900000; stroke:none;" d="M312 194L313 195L312 194z"/>
<path style="fill:#f8dfbd; stroke:none;" d="M149 195L150 196L149 195z"/>
<path style="fill:#f2c186; stroke:none;" d="M274 196L275 197L274 196z"/>
<path style="fill:#f9ffff; stroke:none;" d="M44 197L45 198L44 197z"/>
<path style="fill:#36aae7; stroke:none;" d="M45 197L44 206C48.2169 205.096 47 200.644 47 197L45 197z"/>
<path style="fill:#46b4e4; stroke:none;" d="M263 200L263 202L265 202L265 200L263 200z"/>
<path style="fill:#6fcefe; stroke:none;" d="M316.333 200.667L316.667 201.333L316.333 200.667z"/>
<path style="fill:#d4a591; stroke:none;" d="M261 201L262 202L261 201z"/>
<path style="fill:#ff3300; stroke:none;" d="M162 203L163 204L162 203z"/>
<path style="fill:#66c5ec; stroke:none;" d="M164 205L167 204L164 205z"/>
<path style="fill:#ffffa0; stroke:none;" d="M44 204L45 205L44 204z"/>
<path style="fill:#5e90a8; stroke:none;" d="M165 204L165 206L167 206L167 204L165 204z"/>
<path style="fill:#569acf; stroke:none;" d="M255 205L251 209L252 214L253 214L260 206L255 205z"/>
<path style="fill:#fff6c8; stroke:none;" d="M46 207L47 208L46 207z"/>
<path style="fill:#4db3e6; stroke:none;" d="M47 207L46 213L50 213L47 207z"/>
<path style="fill:#2a8ac8; stroke:none;" d="M170 207L170 208L225 208L207 207L170 207z"/>
<path style="fill:#224040; stroke:none;" d="M255 207L256 208L255 207z"/>
<path style="fill:#329acf; stroke:none;" d="M80 212L132 211C121.734 206.692 104.158 210 93 210C88.9318 210 82.848 208.741 80 212z"/>
<path style="fill:#ffffef; stroke:none;" d="M317 210L318 211L317 210z"/>
<path style="fill:#66cef9; stroke:none;" d="M79 217L83 213L132 214C130.96 209.147 123.088 211 119 211C110.51 211 79.2236 206.538 79 217z"/>
<path style="fill:#33acf5; stroke:none;" d="M132 211L132 214L134 214L134 211L132 211z"/>
<path style="fill:#ff6300; stroke:none;" d="M251 211L252 212L251 211z"/>
<path style="fill:#9ce9f8; stroke:none;" d="M47 212L50 216L47 212z"/>
<path style="fill:#4e8eb2; stroke:none;" d="M136 214L139 212L136 214z"/>
<path style="fill:#a1dab8; stroke:none;" d="M250 212L251 213L250 212z"/>
<path style="fill:#7d6c60; stroke:none;" d="M251.333 212.667L251.667 213.333L251.333 212.667z"/>
<path style="fill:#35a7df; stroke:none;" d="M273 212L273 215L276 212L273 212z"/>
<path style="fill:#4c9dd4; stroke:none;" d="M296 212L296 216L303 217L296 212z"/>
<path style="fill:#3f8dcc; stroke:none;" d="M78 213L78 217L79 217L78 213z"/>
<path style="fill:#4db9fa; stroke:none;" d="M138 213L137 216L138 213z"/>
<path style="fill:#ffffff; stroke:none;" d="M50 214L51 215L50 214z"/>
<path style="fill:#a2e1ec; stroke:none;" d="M136.667 214.333L137.333 214.667L136.667 214.333z"/>
<path style="fill:#52bfee; stroke:none;" d="M141 214L140 217L141 214z"/>
<path style="fill:#3792c9; stroke:none;" d="M308 219L311 216L314 217C312.919 211.98 308.674 215.598 308 219z"/>
<path style="fill:#3599dc; stroke:none;" d="M76 215L69 222L73 222L73 221L70 220L77 220L76 215z"/>
<path style="fill:#5f868a; stroke:none;" d="M77 215L79 219L77 215z"/>
<path style="fill:#dcded5; stroke:none;" d="M312 215L313 216L312 215z"/>
<path style="fill:#ffffff; stroke:none;" d="M463 231L463 217L436 217L436 333L463 333L463 285C463 275.805 462.177 265.416 466.554 257C474.291 242.125 496.759 235.319 508.291 250.043C514.852 258.42 514 269.022 514 279L514 333L542 333C542 294.458 556.697 221.881 503 215.286C496.665 214.508 490.098 215.519 484.004 217.299C475.542 219.771 469.589 225.531 463 231M879 215.425C871.376 216.463 863.952 217.766 857.286 221.837C841.394 231.542 833.864 254.401 846.67 269.96C853.292 278.005 864.199 282.273 874 284.972C880.321 286.713 899.683 291.616 897.623 300.96C893.934 317.696 864.923 304.729 857 300.079C853.833 298.221 849.216 294.055 845.301 296.072C840.79 298.395 832.601 311.601 834.619 316.699C836.156 320.583 841.602 322.568 845 324.41C860.924 333.041 880.162 336.177 898 332.829C921.022 328.51 935.7 298.994 922.248 278.439C916.782 270.088 905.007 265.512 896 262.309C889.551 260.016 868.034 258.587 868.167 248.989C868.379 233.66 897.022 241.326 904 244.959C906.866 246.451 911.098 249.998 914.446 247.953C917.254 246.238 918.671 241.794 920.083 239C921.586 236.029 924.632 231.893 923.368 228.38C922.14 224.967 916.963 223.049 913.996 221.591C903.601 216.481 890.546 213.854 879 215.425M1219 261C1199.23 261 1174.09 257.134 1157.04 269.442C1136.61 284.191 1142.98 317.153 1163.04 328.765C1182 339.739 1205.36 333.631 1222 322L1222 333L1247 333L1247 265C1247 252.177 1247.04 238.278 1237.53 228.301C1221.73 211.707 1191.64 212.038 1172 220.59C1167.13 222.712 1153.46 227.751 1153.28 234.054C1153.11 240.083 1161.54 250.867 1168 249.562C1183.21 246.491 1206.89 227.974 1217.52 251.015C1219.01 254.247 1218.99 257.518 1219 261M1487 249C1488.12 243.134 1496.53 234.106 1494.35 228.329C1492.23 222.7 1480.27 219.111 1475 217.808C1456.11 213.134 1434.49 214.113 1419.67 228.289C1406.5 240.874 1408.6 262.719 1421.81 274.04C1428.9 280.119 1438.33 282.613 1447 285.515C1452.88 287.484 1468.49 291.25 1468.95 299.015C1469.64 310.397 1451.75 309.131 1445 307.614C1437.72 305.98 1423.87 293.448 1417.1 295.658C1413.31 296.897 1411.33 302.304 1409.37 305.424C1407.9 307.768 1406.16 310.25 1405.52 312.985C1403.31 322.419 1424.29 328.575 1431 330.464C1452.54 336.53 1485.57 337.393 1495.4 312C1505.08 286.999 1489.58 270.185 1467 262.421C1461.24 260.44 1436.9 257.436 1439.66 248.011C1445.68 227.489 1476.68 248.672 1487 249z"/>
<path style="fill:#ff9800; stroke:none;" d="M143 216L144 217L143 216z"/>
<path style="fill:#ff0000; stroke:none;" d="M270 216L271 217L270 216z"/>
<path style="fill:#ff992a; stroke:none;" d="M54 217L55 218L54 217z"/>
<path style="fill:#5dbdf5; stroke:none;" d="M55 217L54 220L55 217z"/>
<path style="fill:#ffffff; stroke:none;" d="M708 217L708 277C708 290.053 707.397 304.281 714.5 315.83C727.973 337.737 772.391 342.938 786 318L787 318L787 333C792.424 333 810.438 335.859 813.972 331.397C817.685 326.71 815 311.846 815 306L815 242C815 236.532 817.462 223.009 813.972 218.603C810.438 214.141 792.424 217 787 217L787 263C787 273.299 787.839 283.449 783.205 292.996C775.936 307.975 752.846 314.3 741.637 299.907C735.823 292.44 736.003 281.055 736 272L736 217L708 217z"/>
<path style="fill:#ff4a00; stroke:none;" d="M267 218L268 219L267 218z"/>
<path style="fill:#9beaee; stroke:none;" d="M57 222L60 219L57 222z"/>
<path style="fill:#f0e8d8; stroke:none;" d="M71 219L72 220L71 219z"/>
<path style="fill:#000038; stroke:none;" d="M244 219L245 220L244 219z"/>
<path style="fill:#576a7e; stroke:none;" d="M56.6667 220.333L57.3333 220.667L56.6667 220.333z"/>
<path style="fill:#5382a6; stroke:none;" d="M70 220L70 221L74 221L70 220z"/>
<path style="fill:#49a2d0; stroke:none;" d="M150 220L150 223L152 223L152 220L150 220z"/>
<path style="fill:#44a5e0; stroke:none;" d="M235 228L245 223L245 221L244 220L235 228z"/>
<path style="fill:#2a6073; stroke:none;" d="M262.333 222.667L262.667 223.333L262.333 222.667z"/>
<path style="fill:#000000; stroke:none;" d="M154 223L155 224L154 223z"/>
<path style="fill:#38aceb; stroke:none;" d="M157 223L160 227L159 223L157 223z"/>
<path style="fill:#2c79a7; stroke:none;" d="M162 224L162 228L164 228L164 224L162 224z"/>
<path style="fill:#55beeb; stroke:none;" d="M260 224L260 227L261 227L262 224L260 224z"/>
<path style="fill:#000000; stroke:none;" d="M161 225L162 226L161 225z"/>
<path style="fill:#45b6f4; stroke:none;" d="M164 225L164 228C166.006 226.873 166.006 226.127 164 225z"/>
<path style="fill:#ffffff; stroke:none;" d="M164 226L165 227L164 226z"/>
<path style="fill:#65a7d5; stroke:none;" d="M257 227L256 229L256 230L259 231L259 227L257 227z"/>
<path style="fill:#1a76a9; stroke:none;" d="M253 235L258 230C254.639 230.716 253.172 231.483 253 235z"/>
<path style="fill:#a1ebff; stroke:none;" d="M195 233L195 234L199 234L195 233z"/>
<path style="fill:#ff0000; stroke:none;" d="M199 233L200 234L199 233z"/>
<path style="fill:#3a90c7; stroke:none;" d="M247 237L247 238L254 235L247 237z"/>
<path style="fill:#2fadf4; stroke:none;" d="M185 235L186 238L187 238L187 235L185 235z"/>
<path style="fill:#ca443b; stroke:none;" d="M188 235L189 236L188 235z"/>
<path style="fill:#c07038; stroke:none;" d="M205 235L206 236L205 235z"/>
<path style="fill:#479bc8; stroke:none;" d="M210 236C209.275 240.071 211.077 241.423 215 242L212 236L210 236z"/>
<path style="fill:#ca8893; stroke:none;" d="M185 237L186 238L185 237z"/>
<path style="fill:#6fc3ff; stroke:none;" d="M179 240L179 242L182 242L182 240L179 240z"/>
<path style="fill:#37a6f3; stroke:none;" d="M240 240L243 242L240 240z"/>
<path style="fill:#000000; stroke:none;" d="M620 240.454C579.448 245.912 583.244 313.596 625 308.557C664.363 303.806 658.667 235.251 620 240.454M1331 240.479C1289.71 246.883 1296.01 314.291 1339 307.787C1377.68 301.934 1368.72 234.629 1331 240.479z"/>
<path style="fill:#407fa1; stroke:none;" d="M239 241L242 243L239 241z"/>
<path style="fill:#4392be; stroke:none;" d="M177 243L176 250C180.009 248.592 180.399 245.479 177 243z"/>
<path style="fill:#ffffff; stroke:none;" d="M178 246L179 247L178 246z"/>
<path style="fill:#43abe5; stroke:none;" d="M176 250C176.019 256.909 177.195 262.157 181 268L182 268L179 250L176 250z"/>
<path style="fill:#40b7f8; stroke:none;" d="M101 251L101 254L103 254L103 251L101 251z"/>
<path style="fill:#3fb4f6; stroke:none;" d="M107 253L110 251L107 253z"/>
<path style="fill:#69c8fe; stroke:none;" d="M92 254L92 256L94 254L92 254z"/>
<path style="fill:#ffff00; stroke:none;" d="M116 254L117 255L116 254z"/>
<path style="fill:#3e737d; stroke:none;" d="M117.333 254.667L117.667 255.333L117.333 254.667z"/>
<path style="fill:#000000; stroke:none;" d="M93 255L94 256L93 255z"/>
<path style="fill:#c7bc87; stroke:none;" d="M116 256L117 257L116 256z"/>
<path style="fill:#3482b9; stroke:none;" d="M116 257L116 258L119 261L120 261L122 260L122 257L116 257z"/>
<path style="fill:#8e5423; stroke:none;" d="M292 256L293 257L292 256z"/>
<path style="fill:#5b777c; stroke:none;" d="M292 257L292 258L295 258L292 257z"/>
<path style="fill:#2791bc; stroke:none;" d="M302 257L301 261L309 263L302 257z"/>
<path style="fill:#60b4e4; stroke:none;" d="M88 258L87 266L88 261L90 261L90 258L88 258z"/>
<path style="fill:#4ba0c9; stroke:none;" d="M286 258L287 261L285 264L290 261L290 259L286 258z"/>
<path style="fill:#0000ed; stroke:none;" d="M89 259L90 260L89 259z"/>
<path style="fill:#68d1fe; stroke:none;" d="M122 259L122 260L128 260L122 259z"/>
<path style="fill:#70cfff; stroke:none;" d="M138 259L138 260L152 260L138 259z"/>
<path style="fill:#0003ff; stroke:none;" d="M178 259L179 260L178 259z"/>
<path style="fill:#52b1e1; stroke:none;" d="M120 260C124.608 265.274 144.084 262 151 262L151 261L120 260z"/>
<path style="fill:#000000; stroke:none;" d="M121 260L122 261L121 260z"/>
<path style="fill:#004e7f; stroke:none;" d="M122 260L123 261L122 260z"/>
<path style="fill:#000000; stroke:none;" d="M123 260L124 261L123 260z"/>
<path style="fill:#ffffff; stroke:none;" d="M124.667 260.333L125.333 260.667L124.667 260.333z"/>
<path style="fill:#001559; stroke:none;" d="M126 260L126 261L140 261L126 260z"/>
<path style="fill:#ffffff; stroke:none;" d="M140 260L140 261L145 261L140 260z"/>
<path style="fill:#000a51; stroke:none;" d="M145 260L145 261L149 261L145 260z"/>
<path style="fill:#ffffff; stroke:none;" d="M149 260L150 261L149 260z"/>
<path style="fill:#5cc3f4; stroke:none;" d="M160 263L163 261C160.604 260.425 160.513 260.525 160 263z"/>
<path style="fill:#d6f7ff; stroke:none;" d="M286 260L287 261L286 260z"/>
<path style="fill:#ffffff; stroke:none;" d="M179 261L180 262L179 261z"/>
<path style="fill:#5796c9; stroke:none;" d="M305 261L307 267L310 267L305 261z"/>
<path style="fill:#4d88a8; stroke:none;" d="M160 264L163 262L160 264z"/>
<path style="fill:#000000; stroke:none;" d="M180 263L181 264L180 263z"/>
<path style="fill:#ffffff; stroke:none;" d="M85 264L86 265L85 264z"/>
<path style="fill:#3aa7f1; stroke:none;" d="M211 265L214 267L211 265z"/>
<path style="fill:#2d98db; stroke:none;" d="M183 266L188 272L183 266z"/>
<path style="fill:#4da0cf; stroke:none;" d="M172 267L174 272L175 272L174 267L172 267z"/>
<path style="fill:#ffffff; stroke:none;" d="M175 269L176 270L175 269z"/>
<path style="fill:#b1ffff; stroke:none;" d="M183.667 269.333L184.333 269.667L183.667 269.333z"/>
<path style="fill:#cdffff; stroke:none;" d="M176 270L177 271L176 270z"/>
<path style="fill:#40a7e8; stroke:none;" d="M177 270L178 275L183 276L177 270z"/>
<path style="fill:#ffffff; stroke:none;" d="M190 271L191 272L190 271z"/>
<path style="fill:#368bc3; stroke:none;" d="M195 271L195 273L199 273L199 271L195 271z"/>
<path style="fill:#5eb1e3; stroke:none;" d="M307 272L309 276L307 272z"/>
<path style="fill:#a0ffff; stroke:none;" d="M85 274L86 275L85 274z"/>
<path style="fill:#ec886a; stroke:none;" d="M179 274L180 275L179 274z"/>
<path style="fill:#369bca; stroke:none;" d="M305 275L303 279L306 280L307 275L305 275z"/>
<path style="fill:#3c9dd9; stroke:none;" d="M85 278C85.82 283.272 89.2259 287.708 94 290L88 278L85 278z"/>
<path style="fill:#87c2ee; stroke:none;" d="M301 278L303 281L303 278L301 278z"/>
<path style="fill:#ffffff; stroke:none;" d="M289 279L290 280L289 279z"/>
<path style="fill:#6a3a04; stroke:none;" d="M303 279L304 280L303 279z"/>
<path style="fill:#359de9; stroke:none;" d="M294 283L295 281C292.628 279.761 291.584 281.643 294 283z"/>
<path style="fill:#2a75a1; stroke:none;" d="M298 280L292 283L292 284L299 284L298 280z"/>
<path style="fill:#1e8cd7; stroke:none;" d="M120 281L108 293L110 291C115.698 291.783 119.55 288.713 120 283L121 283L121 286L122 286L122 281L120 281z"/>
<path style="fill:#4099ca; stroke:none;" d="M151 281L163 290C162.025 283.831 156.757 281.718 151 281z"/>
<path style="fill:#000000; stroke:none;" d="M293 281L294 282L293 281M1219 282L1198 282C1193.99 282 1189.92 281.766 1186 282.76C1175.74 285.361 1167.22 295.622 1177.13 304.656C1188.04 314.598 1210.65 309.861 1217.16 296.996C1219.52 292.329 1219 287.071 1219 282z"/>
<path style="fill:#ffff4e; stroke:none;" d="M120 283L121 284L120 283z"/>
<path style="fill:#003fff; stroke:none;" d="M120.333 284.667L120.667 285.333L120.333 284.667z"/>
<path style="fill:#000000; stroke:none;" d="M161 287L162 288L161 287z"/>
<path style="fill:#001254; stroke:none;" d="M95 289L96 290L95 289z"/>
<path style="fill:#497ea5; stroke:none;" d="M108 289L108 290L112 290L108 289z"/>
<path style="fill:#57c6fd; stroke:none;" d="M99 290L99 293C101.006 291.873 101.006 291.127 99 290z"/>
<path style="fill:#5aa7cc; stroke:none;" d="M164 291L169 294L167 290L164 291z"/>
<path style="fill:#2b749a; stroke:none;" d="M242 290C244.262 293.678 247.447 294.671 249 290L242 290z"/>
<path style="fill:#28415b; stroke:none;" d="M97 291L97 292L100 292L97 291z"/>
<path style="fill:#ffffff; stroke:none;" d="M110 291L111 292L110 291z"/>
<path style="fill:#000000; stroke:none;" d="M168 292L169 293L168 292z"/>
<path style="fill:#2e7fab; stroke:none;" d="M251 292C252.164 295.981 253.868 297.132 258 297L251 292z"/>
<path style="fill:#418fb4; stroke:none;" d="M235 298L241 294C237.506 293.869 236.277 294.746 235 298z"/>
<path style="fill:#ffffff; stroke:none;" d="M170 294L171 295L170 294z"/>
<path style="fill:#e84209; stroke:none;" d="M172 294L173 295L172 294z"/>
<path style="fill:#46a1cd; stroke:none;" d="M174 294L177 297L176 294L174 294z"/>
<path style="fill:#a9dde7; stroke:none;" d="M170.667 295.333L171.333 295.667L170.667 295.333z"/>
<path style="fill:#000000; stroke:none;" d="M175 295L176 296L175 295z"/>
<path style="fill:#366d94; stroke:none;" d="M179 298L182 296L179 298z"/>
<path style="fill:#39a9eb; stroke:none;" d="M183 296C185.854 300.402 192.259 299 197 299L236 299C232.882 294.676 226.868 296 222 296L183 296z"/>
<path style="fill:#44a6d9; stroke:none;" d="M255 297L255 315L256 315C259.673 308.538 260.193 304.031 258 297L255 297z"/>
<path style="fill:#ffffff; stroke:none;" d="M256 297L257 298L256 297z"/>
<path style="fill:#99f8ff; stroke:none;" d="M182.667 298.333L183.333 298.667L182.667 298.333z"/>
<path style="fill:#63cdff; stroke:none;" d="M144 301L144 302L149 302L144 301z"/>
<path style="fill:#3998ca; stroke:none;" d="M136 302L136 306L135 306L134 304L133 309L140 304L136 302z"/>
<path style="fill:#c8ffff; stroke:none;" d="M145.667 302.333L146.333 302.667L145.667 302.333z"/>
<path style="fill:#4cc8f5; stroke:none;" d="M154 302L154 305L155 305L156 302L154 302z"/>
<path style="fill:#ff854a; stroke:none;" d="M141 303L142 304L141 303z"/>
<path style="fill:#47aae1; stroke:none;" d="M144 303L144 304L149 304L144 303z"/>
<path style="fill:#ff9f55; stroke:none;" d="M151 303L152 304L151 303z"/>
<path style="fill:#ffffff; stroke:none;" d="M135 304L136 305L135 304z"/>
<path style="fill:#00003a; stroke:none;" d="M135 305L136 306L135 305z"/>
<path style="fill:#4499c8; stroke:none;" d="M130 307L126 318C128.851 317.386 128.854 316.697 128 314C131.111 312.166 131.927 310.165 130 307z"/>
<path style="fill:#99f9ff; stroke:none;" d="M131.333 307.667L131.667 308.333L131.333 307.667z"/>
<path style="fill:#0d430f; stroke:none;" d="M132 308L133 309L132 308z"/>
<path style="fill:#00ffff; stroke:none;" d="M161 309L162 310L161 309z"/>
<path style="fill:#2274a1; stroke:none;" d="M163 311L163 314L235 314L235 311L163 311z"/>
<path style="fill:#d44100; stroke:none;" d="M164 312L164 313L230 313L209 312L164 312z"/>
<path style="fill:#00e4ff; stroke:none;" d="M230 312L231 313L230 312z"/>
<path style="fill:#b1db97; stroke:none;" d="M254 312L254 315L255 315L254 312z"/>
<path style="fill:#ff0000; stroke:none;" d="M251 315L252 316L251 315z"/>
<path style="fill:#42b2eb; stroke:none;" d="M241 316L241 318L243 318L243 316L241 316z"/>
<path style="fill:#ffffff; stroke:none;" d="M249.333 316.667L249.667 317.333L249.333 316.667z"/>
<path style="fill:#3b96c9; stroke:none;" d="M126 326C126.685 330.937 127.92 334.547 133 336L133 337L131 338L138 341L130 326L126 326z"/>
<path style="fill:#3db4f5; stroke:none;" d="M270 331L271 329C268.628 327.761 267.584 329.643 270 331z"/>
<path style="fill:#000028; stroke:none;" d="M273 328L273 329L276 329L273 328z"/>
<path style="fill:#6e7b92; stroke:none;" d="M278.667 328.333L279.333 328.667L278.667 328.333z"/>
<path style="fill:#3a8cbd; stroke:none;" d="M265 329C258.885 334.773 245.002 332 237 332L161 332L162 336C186.056 331.534 213.537 335 238 335C247.494 335 260.93 337.613 269 332L267 329L265 329z"/>
<path style="fill:#45aee0; stroke:none;" d="M279 329L282 333L283 329L279 329z"/>
<path style="fill:#b8f5ff; stroke:none;" d="M282 330L283 331L282 330z"/>
<path style="fill:#50bdfe; stroke:none;" d="M286 336L286 333C283.393 334.119 282.932 335.341 286 336z"/>
<path style="fill:#002452; stroke:none;" d="M131 334L132 335L131 334z"/>
<path style="fill:#000000; stroke:none;" d="M285 334L286 335L285 334z"/>
<path style="fill:#eb5904; stroke:none;" d="M22 335L23 336L22 335z"/>
<path style="fill:#40a2e5; stroke:none;" d="M26 337L29 336L26 337z"/>
<path style="fill:#358dc8; stroke:none;" d="M0 345L10 340L10 336L0 345z"/>
<path style="fill:#ffd3a8; stroke:none;" d="M12 336L13 337L12 336z"/>
<path style="fill:#000031; stroke:none;" d="M27 336L28 337L27 336z"/>
<path style="fill:#2aa2f5; stroke:none;" d="M29 339L32 336L29 339z"/>
<path style="fill:#ff7700; stroke:none;" d="M131.667 336.333L132.333 336.667L131.667 336.333z"/>
<path style="fill:#3c9bca; stroke:none;" d="M151 339L155 342L154 339L151 339z"/>
<path style="fill:#00268c; stroke:none;" d="M156 339L157 340L156 339z"/>
<path style="fill:#286fa2; stroke:none;" d="M286 339L286 343L289 343L289 339L286 339z"/>
<path style="fill:#90b0d1; stroke:none;" d="M37.3333 341.667L37.6667 342.333L37.3333 341.667z"/>
<path style="fill:#54c4fe; stroke:none;" d="M64 345L68 344L64 345z"/>
<path style="fill:#25a1d5; stroke:none;" d="M286 343L279 350L280 353C284.836 350.817 287.629 348.197 289 343L286 343z"/>
<path style="fill:#ffffff; stroke:none;" d="M66 344L67 345L66 344z"/>
<path style="fill:#32a3e4; stroke:none;" d="M181 344L181 347L262 347L262 346L184 346L184 345L262 345L237 344L181 344z"/>
<path style="fill:#000000; stroke:none;" d="M0 345L1 346L0 345z"/>
<path style="fill:#297297; stroke:none;" d="M176 345L176 346L177 348L181 348L181 345L176 345z"/>
<path style="fill:#000000; stroke:none;" d="M184 345L185 346L184 345z"/>
<path style="fill:#5cd1ff; stroke:none;" d="M185 345L185 346L261 346L237 345L185 345z"/>
<path style="fill:#52bcfa; stroke:none;" d="M169 346L172 349L169 346z"/>
<path style="fill:#55a1d0; stroke:none;" d="M80 350L83 348C80.6038 347.425 80.513 347.525 80 350z"/>
<path style="fill:#418ab7; stroke:none;" d="M161 348L162 351L166 347L161 348z"/>
<path style="fill:#000000; stroke:none;" d="M165 348L166 349L165 348z"/>
<path style="fill:#6f7f82; stroke:none;" d="M167.667 348.333L168.333 348.667L167.667 348.333z"/>
<path style="fill:#2fa3ed; stroke:none;" d="M266 349L266 353L268 354L269 354L271 351L266 349z"/>
<path style="fill:#e0ffff; stroke:none;" d="M266 350L267 351L266 350z"/>
<path style="fill:#b9886c; stroke:none;" d="M84 351L85 352L84 351z"/>
<path style="fill:#2a95cb; stroke:none;" d="M87 351L87 355L94 357L87 351z"/>
<path style="fill:#3f89ad; stroke:none;" d="M269 352L269 354L271 354L271 352L269 352z"/>
<path style="fill:#438bb9; stroke:none;" d="M0 356L0 362C2.71666 360.023 2.71665 357.977 0 356z"/>
<path style="fill:#44a2ba; stroke:none;" d="M95 356L99 362L100 362L102 360L102 359L95 356z"/>
<path style="fill:#00005d; stroke:none;" d="M145 359L146 360L145 359z"/>
<path style="fill:#4ca8d9; stroke:none;" d="M105 363L105 365L107 365L107 363L105 363z"/>
<path style="fill:#308bbf; stroke:none;" d="M135 363L136 366L108 364C112.01 370.185 130.109 367 137 367L135 363z"/>
<path style="fill:#001176; stroke:none;" d="M138 363L139 364L138 363z"/>
<path style="fill:#3694ce; stroke:none;" d="M185 365C209.057 360.534 236.536 364 261 364C255.538 361.708 247.887 363 242 363L203 363C198.099 363 188.407 361.101 185 365z"/>
<path style="fill:#39a8e8; stroke:none;" d="M34 368L38 368L37 365L60 365C54.5452 362.711 36.257 361.581 34 368z"/>
<path style="fill:#a7f6ff; stroke:none;" d="M134 364L136 366L136 364L134 364z"/>
<path style="fill:#78cffe; stroke:none;" d="M187 364L187 365L261 365L238 364L187 364z"/>
<path style="fill:#4fa9e0; stroke:none;" d="M187 365L187 366L261 366L238 365L187 365z"/>
<path style="fill:#ff0000; stroke:none;" d="M267 365L268 366L267 365z"/>
<path style="fill:#3ba9f2; stroke:none;" d="M269 365L268 367L268 368C270.459 367.483 271.523 366.417 269 365z"/>
<path style="fill:#9bffff; stroke:none;" d="M3.66667 366.333L4.33333 366.667L3.66667 366.333z"/>
<path style="fill:#63c9ff; stroke:none;" d="M66 366L65 368L67 368L66 366z"/>
<path style="fill:#5ac3ff; stroke:none;" d="M176 366L179 368L179 367L176 366z"/>
<path style="fill:#000000; stroke:none;" d="M177 366L178 367L177 366z"/>
<path style="fill:#f8ffff; stroke:none;" d="M269 366L270 367L269 366z"/>
<path style="fill:#ffffff; stroke:none;" d="M4 368L5 369L4 368z"/>
<path style="fill:#538699; stroke:none;" d="M68.6667 368.333L69.3333 368.667L68.6667 368.333z"/>
<path style="fill:#0d2334; stroke:none;" d="M71 368L72 369L71 368z"/>
<path style="fill:#41a5dc; stroke:none;" d="M71 369L78 373C76.804 369.4 74.6741 368.318 71 369z"/>
<path style="fill:#2c99d1; stroke:none;" d="M169 374L170 374L173 369C168.917 368.373 168.362 370.216 169 374z"/>
<path style="fill:#ff4b00; stroke:none;" d="M272 368L273 369L272 368z"/>
<path style="fill:#5891b8; stroke:none;" d="M274 368L278 371L274 368z"/>
<path style="fill:#2aa8f0; stroke:none;" d="M278 369L277 372L278 369z"/>
<path style="fill:#4cb8f9; stroke:none;" d="M165 370L165 373L166 373L165 370z"/>
<path style="fill:#63a7e0; stroke:none;" d="M174 370L175 373L176 373L176 370L174 370z"/>
<path style="fill:#005598; stroke:none;" d="M176 373L175 373L170 371L168 374L162 381L160 394L163 394L164 403L164 404L164 405L166 407L173 407L173 411L178 411L177 409C181.992 409.146 185.96 411.97 189 407L194 408L196 400L197 400C199.848 403.259 205.932 402 210 402C222.225 402 237.035 404.295 248.981 401.721C255.82 400.248 258.709 390.3 265 400L266 400L265 397L272 404L272 405L270 419L265 418L264 423L240 420L152 420L151 416L146 418C144.864 414.578 143.43 414.216 140 415C140.129 410.926 139.117 408.732 135 408L133 406L134 404L131 402C127.235 403.226 125.963 401.674 125 398C113.854 396.829 100.394 402.22 89.0833 398.694C84.337 397.215 81.6295 391.258 77.6944 388.722C74.6311 386.748 69.7483 387.508 69 391L66 388L65 388L64 392L60 390L60 395L54 396L51 406L54 406L51 412L54 413L53 420L54 420L56 418L55 423L66 426L64 428L64 429L70 426L69 429L74 429L73 426L76 429C84.281 427.686 83.7853 422.68 89 418L116 421L116 419C119.687 421.648 122.35 424.238 122 429C125.375 432.088 127.069 435.15 132 434C131.969 436.294 132.832 435.716 135 435L133 437L133 438L143 438L142 436L147 436L147 439L240 439C250.386 439 268.891 442.707 278 438L286 441.25L302 453L302 457L309 455L309 459L321 459L321 458L318 458L318 457L334 457L334 412L305 411L306 408L299 409L298 409L289 404L290 399C284.982 399.187 283.929 396.679 284 392L283 392L281 394L282 389C263.076 375.826 242.951 378 220 378C211.85 378 201.39 376.155 194 380C192.412 375.389 188.591 374.148 184 374L184 370C180.489 370 176.854 369.013 176 373z"/>
<path style="fill:#2969a1; stroke:none;" d="M184 370L184 374C188.501 374.331 191.76 376.024 194 380C200.76 375.008 187.987 370.553 184 370z"/>
<path style="fill:#5ba2c4; stroke:none;" d="M12 372L12 375L14 375L14 372L12 372z"/>
<path style="fill:#3b7da9; stroke:none;" d="M16 375L23 375C20.8771 371.736 18.1228 371.736 16 375z"/>
<path style="fill:#6ab1d7; stroke:none;" d="M282 373L286 376L282 373z"/>
<path style="fill:#2e92ce; stroke:none;" d="M160 373L153 378L154 381L161 378L160 373z"/>
<path style="fill:#320000; stroke:none;" d="M162 373L163 374L162 373z"/>
<path style="fill:#ff0000; stroke:none;" d="M161 374L162 375L161 374z"/>
<path style="fill:#2d71a2; stroke:none;" d="M162.333 374.667L162.667 375.333L162.333 374.667z"/>
<path style="fill:#a1bbcf; stroke:none;" d="M166.333 374.667L166.667 375.333L166.333 374.667z"/>
<path style="fill:#0000ff; stroke:none;" d="M167 374L168 375L167 374z"/>
<path style="fill:#3e729a; stroke:none;" d="M165 378L163 377L162 380L169 375L165 378z"/>
<path style="fill:#479ed2; stroke:none;" d="M85 376L91 381L85 376z"/>
<path style="fill:#559fc6; stroke:none;" d="M288 376L292 381L288 376z"/>
<path style="fill:#a1a6a1; stroke:none;" d="M83.6667 377.333L84.3333 377.667L83.6667 377.333z"/>
<path style="fill:#448ac1; stroke:none;" d="M260 378L262 381L262 378L260 378z"/>
<path style="fill:#234666; stroke:none;" d="M262 378L262 382L266 379L262 378z"/>
<path style="fill:#347eaa; stroke:none;" d="M91 379C91.9665 382.121 93.5389 383.952 96 381L93 382L93 379L91 379z"/>
<path style="fill:#ff791b; stroke:none;" d="M162 380L163 381L162 380z"/>
<path style="fill:#3282b7; stroke:none;" d="M293 380L295 387L298 386L293 380z"/>
<path style="fill:#337fb7; stroke:none;" d="M161 381L160 387C162.523 385.166 162.616 383.619 161 381z"/>
<path style="fill:#4c98c5; stroke:none;" d="M141 387L145 387L145 386L144 384L141 387z"/>
<path style="fill:#000000; stroke:none;" d="M146 384L147 385L146 384z"/>
<path style="fill:#5ad0ff; stroke:none;" d="M146 386L149 384L146 386z"/>
<path style="fill:#25749d; stroke:none;" d="M106 385L106 388L139 388C134.254 381.419 113.701 385 106 385z"/>
<path style="fill:#3aa6e7; stroke:none;" d="M297 386L298 391L300 391C300.983 388.012 299.85 386.937 297 386z"/>
<path style="fill:#2a7cbf; stroke:none;" d="M66 388L69 391L66 388z"/>
<path style="fill:#4f84b4; stroke:none;" d="M61 389L64 392L61 389z"/>
<path style="fill:#3e85c5; stroke:none;" d="M79 389C82.9374 401.583 108.052 399.368 118 397L93.0039 395.853L79 389z"/>
<path style="fill:#0000ff; stroke:none;" d="M299 389L300 390L299 389z"/>
<path style="fill:#ffdf82; stroke:none;" d="M299 390L300 391L299 390z"/>
<path style="fill:#4f8ecc; stroke:none;" d="M280 391L283 394L280 391z"/>
<path style="fill:#3d8cb8; stroke:none;" d="M307 391L310 395L310 391L307 391z"/>
<path style="fill:#4686af; stroke:none;" d="M57 392L55 395L60 395L59 392L57 392z"/>
<path style="fill:#ffffff; stroke:none;" d="M59 393L60 394L59 393z"/>
<path style="fill:#2b76a6; stroke:none;" d="M313 393L313 396L317 397L313 393z"/>
<path style="fill:#487fa9; stroke:none;" d="M160 394L163 405L164 405L166 403L163 394L160 394z"/>
<path style="fill:#0044ff; stroke:none;" d="M284.333 394.667L284.667 395.333L284.333 394.667z"/>
<path style="fill:#7fb4e0; stroke:none;" d="M285 394L286 398L287 398L285 394z"/>
<path style="fill:#817c74; stroke:none;" d="M312.667 394.333L313.333 394.667L312.667 394.333z"/>
<path style="fill:#3dacec; stroke:none;" d="M316 394L319 397L316 394z"/>
<path style="fill:#2b72ac; stroke:none;" d="M85 395C89.0297 402.686 109.292 399 117 399L117 398C106.122 398 95.0044 399.477 85 395z"/>
<path style="fill:#000000; stroke:none;" d="M161 395L162 396L161 395z"/>
<path style="fill:#2b506b; stroke:none;" d="M255 398L262 398L262 395L255 398z"/>
<path style="fill:#3875a8; stroke:none;" d="M283 395C284.271 398.322 285.433 399.357 289 399L283 395z"/>
<path style="fill:#ffffcd; stroke:none;" d="M56 396L57 397L56 396z"/>
<path style="fill:#3085c7; stroke:none;" d="M254 396L257 399L257 398L256 396L254 396z"/>
<path style="fill:#00ffff; stroke:none;" d="M260 396L261 397L260 396z"/>
<path style="fill:#2c7aba; stroke:none;" d="M262 396L264 399L264 396L262 396z"/>
<path style="fill:#000000; stroke:none;" d="M116 397L117 398L116 397z"/>
<path style="fill:#6999c0; stroke:none;" d="M265 397L266 402L269 406L272 405L265 397z"/>
<path style="fill:#1e6ca5; stroke:none;" d="M125 399C126.019 402.602 128.547 404.802 131 401L128 399L125 399z"/>
<path style="fill:#ffbc03; stroke:none;" d="M267 399L268 400L267 399z"/>
<path style="fill:#995723; stroke:none;" d="M288 399L289 400L288 399z"/>
<path style="fill:#5785a7; stroke:none;" d="M196 400L193 407C195.954 405.062 197.845 403.405 196 400z"/>
<path style="fill:#904910; stroke:none;" d="M267 401L268 402L267 401z"/>
<path style="fill:#3472a4; stroke:none;" d="M289 404L299 409L299 405C295.34 403.793 291.713 400.06 289 404z"/>
<path style="fill:#ffffff; stroke:none;" d="M164 402L165 403L164 402z"/>
<path style="fill:#74a1c5; stroke:none;" d="M133.667 405.333L134.333 405.667L133.667 405.333z"/>
<path style="fill:#478cc4; stroke:none;" d="M51 406L51 411L54 411L54 406L51 406z"/>
<path style="fill:#3579ae; stroke:none;" d="M167 406L173 410L167 406z"/>
<path style="fill:#c5edff; stroke:none;" d="M135 407L136 408L135 407z"/>
<path style="fill:#5293ca; stroke:none;" d="M189 407L188 410L191 408L189 407z"/>
<path style="fill:#3786c0; stroke:none;" d="M177 409L177 410L184 411L177 409z"/>
<path style="fill:#d47f4c; stroke:none;" d="M302 409L303 410L302 409z"/>
<path style="fill:#5da4e0; stroke:none;" d="M305 411L308 410L305 411z"/>
<path style="fill:#ffffff; stroke:none;" d="M179 410L179 411L182 411L179 410z"/>
<path style="fill:#649ecb; stroke:none;" d="M270 411L269 416C271.444 414.392 271.662 413.413 270 411z"/>
<path style="fill:#267cc2; stroke:none;" d="M140 415L146 415C144.403 412.009 140.837 411.113 140 415z"/>
<path style="fill:#0f5183; stroke:none;" d="M334 412L334 457L338 457L338 412L334 412z"/>
<path style="fill:#207cc1; stroke:none;" d="M51 413L52 418L53 418L54 413L51 413z"/>
<path style="fill:#3d81b5; stroke:none;" d="M146 418L149 415L146 418z"/>
<path style="fill:#4a7fa7; stroke:none;" d="M268 415L267 419L271 416L268 415z"/>
<path style="fill:#640000; stroke:none;" d="M53 416L54 417L53 416z"/>
<path style="fill:#ffffff; stroke:none;" d="M149 416L150 417L149 416z"/>
<path style="fill:#b34700; stroke:none;" d="M148 417L149 418L148 417z"/>
<path style="fill:#326f9e; stroke:none;" d="M152 417C153.217 422.68 171.776 420 177 420C202.881 420 231.064 416.923 256 423L257 420C248.242 415.929 238.466 417 229 417L182 417C174.526 417 162.338 414.67 156 419L152 417z"/>
<path style="fill:#5b9fd9; stroke:none;" d="M155 419L158 418L155 419z"/>
<path style="fill:#6db8f3; stroke:none;" d="M245.667 417.333L246.333 417.667L245.667 417.333z"/>
<path style="fill:#2181ce; stroke:none;" d="M54 418L54 421L56 421L56 418L54 418z"/>
<path style="fill:#3e75a1; stroke:none;" d="M87 418L85 422L89 422L89 418L87 418z"/>
<path style="fill:#ffffff; stroke:none;" d="M952.04 418.576C940.93 421.789 946.625 437.654 957.981 434.682C967.796 432.114 962.919 415.43 952.04 418.576M1314.02 418.746C1303.31 422.884 1310.61 439.46 1321.86 434.142C1330.96 429.838 1323.67 415.016 1314.02 418.746M1409.04 418.576C1398.88 421.553 1404.2 439.073 1415.95 434.397C1425.82 430.463 1418.94 415.676 1409.04 418.576z"/>
<path style="fill:#4783b7; stroke:none;" d="M116 419L123 428C122.281 423.42 120.167 420.965 116 419z"/>
<path style="fill:#3180c3; stroke:none;" d="M262 419L264 423L264 419L262 419z"/>
<path style="fill:#ffffff; stroke:none;" d="M1382 419L1382 486L1396 486L1396 419L1382 419z"/>
<path style="fill:#812200; stroke:none;" d="M56 420L57 421L56 420z"/>
<path style="fill:#ffaa15; stroke:none;" d="M265 420L266 421L265 420z"/>
<path style="fill:#6caae4; stroke:none;" d="M115 421L118 423L115 421z"/>
<path style="fill:#33536c; stroke:none;" d="M255 421C257.599 423.624 259.814 424.323 262 421L255 421z"/>
<path style="fill:#ffffff; stroke:none;" d="M1142 441C1143.46 437.902 1146.4 434.782 1145.64 431.09C1142.91 417.777 1114.53 420.57 1107.02 426.471C1092.47 437.902 1103.07 456.287 1117 460.91C1120.53 462.08 1131.52 463.364 1131.52 468.576C1131.52 473.166 1123.89 473.169 1121 472.362C1112.95 470.116 1102.54 459.077 1098.65 473.996C1097.09 479.957 1106.61 483.848 1111 485.326C1121.91 488.997 1142.36 488.985 1147.18 475.985C1151.56 464.169 1145.7 452.317 1134 448.59C1130.43 447.452 1116.67 445.937 1117.63 440.259C1119.01 432.13 1137.56 440.95 1142 441M357 423C357.314 437.638 371.176 449.054 376.775 462C379.724 468.817 378 478.684 378 486L393 486C393 478.928 391.2 468.976 394.133 462.424C398.803 451.989 413.998 438.453 414.574 427.059C414.864 421.331 403.39 422.187 400.129 424.028C394.076 427.445 388.672 439.799 386 446L370.787 423.742L357 423M568 486C572.305 486 578.685 487.186 582.671 485.397C586.99 483.458 587.102 477.385 591.188 475.028C602.587 468.453 615.82 474.855 619 486L635 486C634.867 471.261 623.235 453.403 617.221 440C615.219 435.54 613.077 427.922 609.441 424.603C606.819 422.211 600.282 422.452 597.044 423.318C591.65 424.76 589.742 433.418 587.87 438C581.76 452.946 569.74 469.882 568 486M692 437L687 437L687 450L692 450C692 459.589 689.528 474.077 696.279 481.945C700.891 487.321 720.805 491.246 722.577 480.826C724.527 469.36 711.299 475.714 708.028 470.728C704.962 466.055 707 455.446 707 450L719 450L719 437L707 437C707 433.583 707.938 428.451 706.397 425.318C704.754 421.979 695.234 421.817 693.028 424.603C690.821 427.389 692 433.643 692 437M915 423L915 437L909 437L909 450L915 450C915 459.016 912.115 474.399 918.275 481.811C922.867 487.336 942.875 491.22 944.577 480.906C946.478 469.391 933.476 475.754 930.179 470.728C927.02 465.913 929 455.578 929 450L941 450L941 437L929 437L929 423L915 423M1472 423L1472 437L1467 437L1467 450L1472 450C1472 458.739 1469.14 473.569 1474.65 480.906C1478.54 486.086 1496.68 491.902 1499.57 482.856C1503.95 469.1 1491.94 476.658 1488.03 471.512C1484.76 467.211 1487 455.253 1487 450L1498 450L1498 437L1487 437C1487 423.853 1484.86 423 1472 423M120 424L121 425L120 424z"/>
<path style="fill:#487195; stroke:none;" d="M61 426L61 427L66 428L61 426z"/>
<path style="fill:#3f90c6; stroke:none;" d="M67 429L70 426L67 429z"/>
<path style="fill:#2d71a9; stroke:none;" d="M73 426L76 429L73 426z"/>
<path style="fill:#000000; stroke:none;" d="M80 426L81 427L80 426M127 431L128 432L127 431z"/>
<path style="fill:#5d96bc; stroke:none;" d="M134 435L132 436L132 437L134 435z"/>
<path style="fill:#4d8fc0; stroke:none;" d="M142 436L142 437C143.96 437.653 144.554 438 142 438L142 439L147 439L147 436L142 436z"/>
<path style="fill:#ffffff; stroke:none;" d="M143 437L144 438L143 437M424.004 437.688C407.76 442.839 402.791 466.381 413.38 478.957C420.603 487.535 434.769 489.108 445 485.59C459.716 480.53 464.808 459.395 456.008 447.039C449.202 437.484 435.046 434.187 424.004 437.688M465 437C465 449.158 461.838 466.582 466.475 477.981C470.418 487.676 487.381 490.237 495 484L511 486L511 437L496 437C496 445.707 498.15 457.702 495.436 465.999C493.988 470.427 489.074 474.895 484.185 472.592C474.955 468.243 479 445.354 479 437L465 437M519 437L519 486L534 486C534 472.274 530.146 453.639 548 451L548 437L534 440C531.041 435.436 523.913 437 519 437M636 437C636 449.127 632.811 466.672 637.702 477.985C641.781 487.419 658.449 490.567 666 484L682 486L682 437L667 437C667 445.915 668.936 457.391 666.566 465.999C665.386 470.285 660.839 474.471 656.13 473.027C645.826 469.867 650 445.088 650 437L636 437M739 437.558C721.558 442.106 716.434 466.589 727.729 479.532C734.736 487.561 748.266 488.72 758 485.895C773.014 481.538 778.385 459.787 769.931 447.3C763.215 437.381 750.256 434.623 739 437.558M779 437L779 486L794 486C794 478.48 789.811 448.851 803.957 451.137C814.383 452.821 811 478.768 811 486L824 486C824 477.63 821.877 465.817 825.228 458.015C826.918 454.081 831.327 449.789 835.981 451.506C845.839 455.144 842 477.827 842 486L856 486C856 472.381 862.041 441.714 843.999 437.415C835.445 435.377 828.431 441.017 820.985 440.302C811.281 439.372 803.699 433.598 794 440C792.915 434.938 783.306 437 779 437M891 455C882.839 455 873.525 453.57 866.305 458.174C857.761 463.623 859.572 479.632 867.58 484.697C876.717 490.475 894.551 486 905 486C905 472.447 910.636 445.642 895.996 438.533C889.649 435.451 877.236 435.826 871.001 438.975C866.704 441.144 862.179 444.688 865.434 449.853C870.675 458.167 883.192 446.48 891 455M948 437L948 486L962 486L962 437L948 437M984 437.638C966.87 442.583 961.819 465.571 972.669 478.696C979.649 487.139 992.835 488.988 1003 486.061C1018.6 481.569 1024.33 460.017 1015.45 447.054C1008.77 437.299 995.035 434.453 984 437.638M1024 437L1024 486L1040 486C1040 478.14 1035.55 449.932 1048.98 450.908C1060.86 451.771 1057 478.407 1057 486L1070 486C1070 474.643 1073.46 456.537 1069.14 446.004C1064.78 435.382 1048.4 434.456 1040 440C1036.94 435.283 1029.07 437 1024 437M1154 437L1154 502L1169 502L1169 484C1172.87 486.234 1176.52 486.992 1181 486.992C1185.07 486.993 1189.39 486.609 1193 484.581C1220.29 469.275 1196.64 421.759 1169 440C1167.92 434.938 1158.31 437 1154 437M1250 470C1239.53 470.117 1231.3 478.388 1223 468L1257 468C1257 460.195 1257.87 450.647 1252.39 444.304C1242.63 433.015 1219.68 434.083 1211.25 446.478C1206.15 453.984 1206.35 464.691 1209.19 472.961C1213.68 485.978 1227.91 488.523 1240 486.56C1244.32 485.859 1253 483.32 1253.45 477.921C1253.69 475.142 1251.12 472.388 1250 470M1276 437.558C1259.8 441.783 1254.02 463.399 1262.39 476.91C1268.93 487.471 1285.94 489.944 1296.71 484.965C1303.19 481.971 1308.12 476.067 1300.94 470.323C1293.35 464.247 1280.08 481.988 1274.51 464.83C1272.93 459.945 1275.79 454.988 1280.09 452.7C1287.4 448.814 1294.67 458.121 1300.85 452.681C1305.67 448.44 1304.01 442.505 1298.98 439.519C1293.06 436 1282.61 435.835 1276 437.558M1310 437L1310 486L1325 486L1325 437L1310 437M1359 455C1350.68 455 1341.54 453.705 1334.3 458.725C1326.67 464.026 1328.55 480.01 1336.09 484.581C1345.54 490.313 1362.35 486 1373 486C1373 474.768 1378.04 447.387 1367.83 440.328C1361.14 435.711 1348.41 435.349 1341 438.518C1336.38 440.493 1330.94 444.311 1334.43 449.853C1340.01 458.692 1351.71 445.436 1359 455M1405 437L1405 486L1419 486L1419 437L1405 437M1450 472C1442.05 475.288 1436.08 467.064 1429.21 469.644C1425.37 471.088 1422.79 477.949 1425.61 481.211C1429.29 485.475 1436.7 486.727 1442 486.961C1454.97 487.533 1473.44 476.546 1461.66 461.529C1457.08 455.702 1447.64 454.243 1441 452L1441 451L1460 453C1461.07 449.998 1463.36 446.435 1462.64 443.133C1461.51 437.955 1453.22 437.061 1449 437.004C1443.51 436.929 1437.89 436.475 1433.04 439.483C1424.02 445.076 1423.29 458.118 1432.09 464.247C1437.31 467.879 1444.32 469.035 1450 472z"/>
<path style="fill:#3c7bba; stroke:none;" d="M276 438L278 441L278 438L276 438z"/>
<path style="fill:#ffe68a; stroke:none;" d="M273 439L274 440L273 439z"/>
<path style="fill:#47514c; stroke:none;" d="M279.667 439.333L280.333 439.667L279.667 439.333z"/>
<path style="fill:#2168a1; stroke:none;" d="M280 442L290 448L291 445C287.952 441.523 283.973 438.52 280 442z"/>
<path style="fill:#76b7f5; stroke:none;" d="M275.667 440.333L276.333 440.667L275.667 440.333z"/>
<path style="fill:#000000; stroke:none;" d="M285 442L286 443L285 442z"/>
<path style="fill:#8ee0ff; stroke:none;" d="M287 443L288 444L287 443z"/>
<path style="fill:#6792b3; stroke:none;" d="M289 445L292 448L297 452L289 445z"/>
<path style="fill:#000000; stroke:none;" d="M601 447L596 460L608 460L603 447L601 447M431.004 450.833C416.84 455.637 422.938 477.788 436.996 473.142C450.394 468.714 444.495 446.258 431.004 450.833M746.004 450.601C732.068 453.492 735.584 475.956 749.961 473.478C764.353 470.997 760.405 447.613 746.004 450.601M991 450.671C977.492 454.416 982.003 477.075 995.999 473.413C1009.97 469.757 1004.87 446.826 991 450.671M1177 450.721C1163.92 454.692 1168.51 477.917 1182 473.092C1194.44 468.642 1189.93 446.799 1177 450.721M1223 456L1241 456C1236.65 448.378 1227.59 448.676 1223 456z"/>
<path style="fill:#ffffff; stroke:none;" d="M295 452L296 453L295 452z"/>
<path style="fill:#3473a4; stroke:none;" d="M296 452L302 456L296 452z"/>
<path style="fill:#20669a; stroke:none;" d="M223 454L223 465L224 465L223 454z"/>
<path style="fill:#4b84af; stroke:none;" d="M224 454L224 465L225 465L224 454z"/>
<path style="fill:#005598; stroke:none;" d="M225 454L226 504L334 504L334 477C327.455 477 315.887 479.354 312 473L303 475C302.284 470.876 297.553 467.902 294 471L288 465C285.131 461.381 282.581 459.897 278 461L276 460L274 456L270 458C267.738 454.874 265.602 455.177 262 456L251 454L225 454z"/>
<path style="fill:#549ed9; stroke:none;" d="M262 456L265 454L262 456z"/>
<path style="fill:#2d7cc1; stroke:none;" d="M269 455L272 458L269 455z"/>
<path style="fill:#3c88c1; stroke:none;" d="M307 455L307 459L309 459L309 455L307 455z"/>
<path style="fill:#c6f7ff; stroke:none;" d="M275 457L276 458L275 457z"/>
<path style="fill:#3481be; stroke:none;" d="M276 457L278 461L279 461L281 459L276 457z"/>
<path style="fill:#478cc3; stroke:none;" d="M318 457L318 458L322 458L322 459L320 459L320 460C325.421 460 334.541 461.896 338 457L318 457z"/>
<path style="fill:#00003b; stroke:none;" d="M275 458L276 459L275 458z"/>
<path style="fill:#000000; stroke:none;" d="M321 458L322 459L321 458M334 458L335 459L334 458z"/>
<path style="fill:#ff8400; stroke:none;" d="M276 459L277 460L276 459z"/>
<path style="fill:#5f9ac8; stroke:none;" d="M223 465L223 499L224 499L223 465z"/>
<path style="fill:#ffffff; stroke:none;" d="M224 465L224 499L225 499L224 465z"/>
<path style="fill:#2a6ea5; stroke:none;" d="M225 465L223 507L224 507C228.333 498.673 228.639 473.672 225 465z"/>
<path style="fill:#2d79b1; stroke:none;" d="M286 465L294 471L296 470L286 465z"/>
<path style="fill:#000000; stroke:none;" d="M875 469C878.425 477.981 887.875 473.895 891 467L875 469M1359 467L1353 467.004C1335.86 467.248 1355.29 482.163 1359 467M298 471L299 472L298 471z"/>
<path style="fill:#548fc4; stroke:none;" d="M303 471L303 474L305 474L305 471L303 471z"/>
<path style="fill:#3b5b7a; stroke:none;" d="M303 474L303 475C305.993 474.936 307.346 475.054 308 472L303 474z"/>
<path style="fill:#4c89bb; stroke:none;" d="M312 476L316 473L312 476z"/>
<path style="fill:#000000; stroke:none;" d="M313 474L314 475L313 474z"/>
<path style="fill:#244d6d; stroke:none;" d="M315 474L315 477L322 477L322 474L315 474z"/>
<path style="fill:#2d6796; stroke:none;" d="M322 474L322 477L334 477L334 474L322 474z"/>
<path style="fill:#174e7c; stroke:none;" d="M334 474L334 504L252 504C245.397 504 228.881 501.013 225 507L338 507L338 474L334 474z"/>
<path style="fill:#000000; stroke:none;" d="M224 505L225 506L224 505z"/>
<path style="fill:#ffffff; stroke:none;" d="M224 506L225 507L224 506z"/>
</svg>
